<?xml version="1.0" standalone="no"?>
<!DOCTYPE svg PUBLIC "-//W3C//DTD SVG 20010904//EN"
 "http://www.w3.org/TR/2001/REC-SVG-20010904/DTD/svg10.dtd">
<svg version="1.0" xmlns="http://www.w3.org/2000/svg"
 width="326.000000pt" height="326.000000pt" viewBox="0 0 326.000000 326.000000"
 preserveAspectRatio="xMidYMid meet">
<metadata>
Created by potrace 1.14, written by Peter Selinger 2001-2017
</metadata>
<g transform="translate(0.000000,326.000000) scale(0.100000,-0.100000)"
fill="#000000" stroke="none">
<path d="M1420 2985 c-11 -14 -15 -40 -25 -177 -4 -57 -4 -58 47 -113 28 -31
53 -53 56 -50 6 6 2 189 -7 292 -1 12 -44 63 -53 63 -3 0 -11 -7 -18 -15z"/>
<path d="M1195 2981 c-64 -19 -154 -106 -138 -135 3 -6 -7 4 -23 22 -47 53
-104 49 -163 -12 -30 -31 -36 -33 -64 -25 -18 5 -47 6 -66 3 -42 -8 -121 -82
-121 -113 0 -22 -14 -28 -25 -11 -8 13 -54 13 -94 -1 -34 -12 -37 -20 -19 -49
17 -28 5 -34 -31 -15 -17 8 -31 12 -31 7 0 -5 -11 -14 -23 -19 -34 -16 -63
-70 -66 -125 -2 -40 1 -50 23 -69 l25 -22 -50 -23 c-38 -18 -53 -32 -65 -60
-14 -32 -14 -38 0 -53 22 -25 20 -29 -16 -36 -40 -8 -57 -20 -87 -63 -48 -68
-24 -211 44 -274 27 -25 27 -26 7 -33 -12 -3 -31 -18 -42 -32 -60 -76 30 -223
136 -223 27 0 29 -3 13 -29 -26 -41 19 -134 86 -178 100 -65 235 -85 281 -42
19 17 30 20 60 15 l36 -7 -19 -22 c-36 -40 -36 -57 -1 -87 30 -26 30 -29 15
-45 -20 -20 -20 -14 -6 -54 19 -54 80 -107 134 -117 15 -3 30 -5 34 -6 15 -3
61 15 72 28 9 10 15 11 25 3 10 -8 9 -16 -6 -41 -46 -77 35 -107 267 -99 34 1
33 0 17 63 -3 13 -7 34 -10 48 -3 14 -10 41 -16 60 -7 19 -12 37 -13 40 -2 17
-62 121 -99 173 -51 71 -94 113 -151 144 -22 12 -46 33 -53 46 -14 28 -110 67
-153 62 -24 -3 -106 -14 -146 -20 -12 -2 -36 -6 -55 -9 l-33 -7 40 22 c55 30
127 56 148 53 30 -4 18 13 -30 44 -68 43 -82 45 -148 22 -61 -21 -138 -21
-173 -1 -14 9 -11 11 16 12 41 2 40 2 90 18 23 8 42 18 42 22 0 11 -107 65
-145 73 -16 3 -51 7 -77 8 -26 0 -53 5 -60 11 -10 6 -8 7 4 3 10 -3 20 0 24 5
3 6 15 9 25 6 11 -3 17 -1 13 4 -5 9 15 13 50 9 15 -1 18 3 13 22 -4 12 -7 26
-7 30 0 4 -9 10 -20 13 -11 3 -20 13 -20 21 0 8 -3 13 -7 12 -5 -1 -33 11 -63
25 l-54 26 87 -4 c47 -2 89 0 92 4 2 5 -7 16 -21 26 -40 26 -117 115 -99 115
3 0 38 -31 77 -70 40 -38 85 -75 100 -81 15 -6 28 -15 28 -20 0 -5 5 -9 10 -9
6 0 24 -10 39 -21 30 -22 56 -18 47 8 -3 8 -1 24 5 36 11 20 13 18 35 -28 13
-27 24 -54 24 -59 1 -32 74 -108 132 -138 35 -18 65 -33 68 -33 17 -4 111 -48
209 -97 63 -32 118 -58 123 -58 12 0 -3 158 -18 203 -4 12 -9 28 -10 36 -4 20
-46 102 -64 124 -16 20 -65 49 -90 54 -34 7 -100 9 -100 3 0 -4 17 -23 38 -42
20 -20 45 -45 55 -57 l18 -22 -44 6 c-25 4 -69 2 -100 -5 -49 -11 -57 -11 -79
6 -25 18 -82 114 -69 114 4 0 18 -12 32 -26 13 -14 32 -30 43 -36 24 -13 126
-27 126 -18 0 15 -88 83 -138 107 -28 13 -73 26 -100 29 -26 2 -78 7 -117 10
-38 3 -83 7 -100 8 -16 2 -38 -1 -48 -6 -13 -7 -19 -4 -24 9 -3 10 -19 37 -35
61 -34 49 -31 51 20 17 25 -17 38 -21 41 -13 2 7 -1 14 -8 16 -6 2 -11 8 -11
14 0 7 5 7 13 -1 8 -6 17 -8 21 -4 4 4 4 0 1 -9 -4 -9 -2 -19 4 -23 6 -3 11 1
11 11 0 14 3 15 12 6 8 -8 8 -15 -2 -27 -10 -12 -10 -15 1 -16 8 0 71 -2 140
-3 70 -2 133 -7 140 -11 8 -5 2 3 -13 17 -15 15 -67 46 -115 70 -91 44 -92 56
-4 40 28 -5 51 -7 51 -3 -1 18 -28 46 -45 48 -11 1 -45 5 -75 9 -30 4 -70 8
-87 8 -41 0 -27 17 16 18 39 1 39 9 -2 51 -57 60 -62 67 -43 67 10 0 14 -4 11
-10 -3 -5 -1 -10 5 -10 7 0 30 -15 53 -34 45 -36 114 -72 123 -64 3 3 -2 24
-9 47 -11 30 -12 43 -3 48 6 3 8 3 4 -2 -4 -4 -2 -13 5 -21 30 -33 37 -44 31
-44 -4 0 5 -11 19 -24 17 -16 36 -23 56 -22 35 2 50 -20 20 -29 -28 -9 -24
-18 29 -65 66 -59 110 -87 162 -100 25 -7 51 -17 59 -23 22 -18 -3 24 -26 43
-10 9 -31 33 -48 54 -16 21 -42 52 -57 69 -30 33 -35 42 -15 31 8 -5 8 -2 -2
9 -7 9 -11 17 -7 17 3 0 -1 16 -9 36 -8 20 -15 39 -15 43 0 3 25 -20 55 -52
31 -32 59 -55 64 -53 5 4 5 22 0 43 -11 48 -11 53 0 53 5 0 11 -14 15 -32 7
-37 51 -79 112 -107 24 -12 46 -21 48 -21 2 0 3 18 1 41 -4 47 -20 68 -90 115
-54 37 -74 60 -95 114 -8 19 -18 38 -24 42 -6 4 -7 11 -2 15 5 4 11 1 14 -7
14 -38 192 -193 206 -179 6 6 -31 108 -49 136 -21 31 -107 64 -167 64 -10 0
-18 4 -18 8 0 5 -8 11 -17 15 -56 20 -73 24 -67 15 3 -5 -1 -9 -9 -9 -7 0 -19
16 -27 35 -8 19 -18 35 -22 35 -5 0 -6 4 -3 10 4 6 15 2 27 -10 12 -11 29 -20
38 -20 8 0 24 -6 35 -14 11 -7 31 -16 45 -19 14 -3 35 -8 48 -11 12 -3 31 -8
43 -11 11 -2 30 -7 40 -10 19 -6 19 -5 7 16 -7 13 -20 31 -29 41 -9 10 -22 30
-30 45 -8 15 -25 38 -37 52 -51 55 -47 64 14 31 37 -21 59 -28 63 -21 6 9 7
92 1 99 -1 1 -3 5 -4 10 -1 4 -7 17 -14 30 -7 12 -10 22 -7 22 12 0 59 -50 63
-67 8 -38 3 -109 -9 -148 -4 -11 29 -65 40 -65 8 0 76 123 73 133 -1 4 2 7 6
7 5 0 14 18 21 40 6 22 15 40 19 40 4 0 34 -14 67 -30 65 -32 80 -30 70 7 -3
14 -2 30 4 36 5 7 12 33 14 59 3 26 8 52 12 57 15 26 -125 58 -180 42z m-370
-441 c3 -5 2 -10 -4 -10 -5 0 -13 5 -16 10 -3 6 -2 10 4 10 5 0 13 -4 16 -10z"/>
<path d="M1547 2973 c-4 -8 -2 -51 8 -163 2 -30 7 -113 9 -185 2 -71 8 -131
13 -132 18 -6 128 103 129 128 1 13 21 66 44 118 50 110 50 149 0 193 -28 26
-32 27 -62 15 -29 -12 -37 -11 -73 10 -42 24 -61 28 -68 16z"/>
<path d="M1950 2830 c-48 -14 -89 -40 -113 -72 -34 -45 -67 -110 -62 -119 3
-4 28 4 55 17 27 13 54 24 60 24 5 0 10 5 10 10 0 6 3 9 8 9 22 -4 36 5 72 42
35 37 58 76 48 83 -10 9 -57 13 -78 6z"/>
<path d="M2037 2761 c-18 -31 -23 -56 -9 -47 5 3 29 6 55 7 53 3 59 15 24 47
-31 30 -49 28 -70 -7z"/>
<path d="M1197 2702 c-15 -31 -39 -78 -53 -104 l-26 -47 17 -53 c10 -29 20
-57 24 -63 3 -5 7 -16 8 -22 7 -33 12 -48 14 -48 4 0 17 -99 23 -180 11 -133
31 -210 62 -245 12 -12 14 -12 14 3 0 9 4 17 10 17 5 0 7 6 4 13 -3 8 2 20 11
27 8 7 15 21 15 31 0 11 4 19 8 19 5 0 19 30 32 68 12 37 29 74 36 83 8 8 14
23 14 32 0 8 7 22 15 30 8 8 20 37 26 64 6 26 19 72 29 100 10 29 16 72 14 95
-2 35 -10 48 -46 80 -24 21 -46 38 -49 38 -3 0 -19 12 -35 26 -26 23 -129 94
-136 94 -2 0 -15 -26 -31 -58z"/>
<path d="M2054 2681 c-3 -3 -15 -6 -27 -7 -39 -4 -64 -12 -135 -43 -39 -17
-75 -31 -81 -31 -6 0 -11 -5 -11 -12 0 -6 -3 -8 -6 -5 -10 10 -54 -25 -159
-127 -58 -56 -94 -99 -90 -106 5 -8 27 -9 68 -5 67 8 140 32 132 45 -3 4 2 13
10 20 13 10 15 9 16 -11 0 -13 3 -18 6 -11 2 6 9 9 15 6 10 -6 58 33 58 47 0
4 5 20 12 36 6 15 12 33 13 39 7 30 38 83 46 78 5 -3 7 -9 4 -14 -3 -5 -8 -33
-11 -62 -6 -56 -49 -146 -121 -255 -61 -92 -210 -403 -192 -403 5 0 9 4 9 10
0 5 3 9 8 8 4 -1 23 5 42 14 19 8 52 20 72 27 24 8 67 42 118 93 44 44 80 76
80 71 0 -5 -13 -34 -29 -65 l-29 -56 31 9 c18 5 52 12 77 15 25 3 50 12 57 21
10 12 30 91 48 181 6 32 15 59 33 101 9 20 17 42 18 50 8 43 16 60 40 84 24
25 46 80 45 119 0 10 5 20 10 23 5 4 7 11 4 16 -4 5 0 9 9 9 11 0 14 -12 10
-64 -4 -63 -4 -65 18 -60 13 2 41 5 63 5 53 1 64 12 55 52 -12 54 -30 78 -72
97 -39 17 -74 17 -63 0 3 -5 1 -11 -5 -15 -6 -3 -10 4 -10 18 0 43 -34 62
-111 62 -39 1 -72 -1 -75 -4z m-39 -221 c-6 -31 18 -43 46 -22 38 30 68 44 80
36 11 -6 -16 -44 -32 -44 -4 0 -36 -19 -71 -43 -35 -23 -76 -51 -93 -61 l-30
-19 19 29 c11 15 28 37 38 48 10 11 19 29 19 40 1 12 2 26 4 31 1 6 3 16 3 23
1 7 6 11 11 7 6 -3 8 -14 6 -25z"/>
<path d="M2282 2447 c-53 -17 -98 -68 -109 -126 -9 -45 -8 -49 6 -41 26 14
171 158 171 169 0 13 -24 13 -68 -2z"/>
<path d="M2369 2382 c-14 -9 -51 -43 -82 -74 -31 -32 -62 -58 -70 -58 -20 0
-62 -40 -80 -76 -9 -17 -19 -53 -22 -80 l-6 -49 87 88 c109 110 120 118 186
122 29 1 58 3 65 4 45 4 57 78 18 116 -28 29 -60 32 -96 7z"/>
<path d="M1740 2334 c-25 -12 -53 -20 -62 -18 -10 1 -20 -1 -23 -5 -2 -5 -18
-7 -35 -6 -16 1 -30 -1 -30 -5 0 -4 -11 -5 -24 -3 -22 5 -26 0 -36 -38 -6 -24
-22 -82 -36 -128 -14 -45 -24 -85 -22 -87 2 -1 28 9 58 24 48 23 123 88 155
133 74 102 106 151 103 153 -1 1 -23 -7 -48 -20z"/>
<path d="M2489 2250 c-7 -4 -37 -10 -65 -13 -29 -3 -60 -10 -70 -15 -35 -19
-210 -228 -196 -235 14 -7 207 8 235 19 9 3 18 14 19 23 0 9 2 21 3 26 2 6 3
16 4 23 0 6 6 12 12 12 8 0 9 -4 0 -13 -21 -26 1 -25 31 1 41 37 88 66 88 55
0 -5 -18 -29 -40 -53 -22 -24 -40 -48 -40 -54 0 -15 92 -16 102 -2 5 7 8 4 8
-6 0 -20 -44 -33 -125 -37 -16 -1 -57 -34 -130 -106 -58 -58 -99 -105 -92
-105 8 0 43 9 78 21 84 27 119 33 119 19 0 -11 -115 -70 -137 -70 -7 0 -10 -7
-7 -15 3 -8 9 -14 12 -13 4 1 21 -2 39 -6 26 -6 30 -10 20 -21 -7 -7 -16 -10
-22 -7 -20 13 -172 10 -239 -4 -74 -15 -117 -33 -82 -34 11 0 74 -29 140 -64
67 -35 164 -78 216 -96 52 -17 100 -37 105 -42 7 -8 6 -9 -2 -4 -6 3 -44 8
-85 11 -76 5 -94 7 -168 25 -25 6 -52 11 -60 12 -8 1 -39 14 -68 30 -30 15
-60 28 -68 28 -8 0 -44 14 -81 30 -36 17 -78 30 -93 30 -56 0 -163 -45 -235
-99 -128 -96 -187 -178 -188 -260 0 -43 26 -144 43 -166 5 -5 9 -14 9 -20 1
-5 5 -23 11 -40 5 -16 12 -43 15 -60 3 -16 8 -41 12 -55 5 -23 7 -108 3 -120
-1 -3 -3 -14 -5 -25 -2 -11 -6 -34 -10 -51 -14 -79 -94 -206 -185 -294 -57
-56 -99 -86 -163 -118 -83 -41 -215 -82 -263 -82 -13 0 -25 -4 -28 -9 -5 -8
10 -8 89 4 49 7 72 11 105 20 14 3 30 7 35 9 141 34 315 140 406 247 24 28 56
65 71 82 l27 32 -5 -30 c-8 -41 -12 -60 -14 -62 -2 -2 -3 -6 -4 -10 -1 -5 -7
-18 -14 -30 -7 -13 -10 -23 -6 -23 3 0 -1 -11 -10 -25 -9 -14 -13 -25 -10 -25
4 0 0 -8 -8 -17 -9 -10 -22 -31 -31 -48 -8 -16 -42 -58 -75 -92 -34 -35 -58
-63 -54 -63 25 0 172 128 172 150 0 6 4 10 8 10 10 0 37 50 34 63 -1 4 2 7 7
7 7 0 22 36 25 62 1 4 6 12 11 17 8 8 11 5 12 -7 3 -37 34 -90 76 -133 78 -77
100 -89 70 -39 -9 16 -20 30 -24 30 -4 0 -12 14 -19 30 -7 17 -16 30 -20 30
-14 0 -49 94 -38 101 7 4 6 9 -2 14 -6 4 -8 14 -5 24 4 9 8 31 10 49 5 49 36
64 107 53 3 -1 10 -13 16 -29 5 -16 37 -49 75 -77 37 -28 67 -56 67 -62 0 -7
4 -13 9 -13 12 0 32 -55 37 -105 2 -22 9 -44 16 -50 8 -7 9 -6 4 3 -4 6 -3 12
3 12 9 0 8 32 -3 87 -11 52 -68 125 -125 159 -18 10 -32 29 -36 48 -4 17 -8
33 -9 36 -1 3 -5 11 -10 19 -25 40 109 39 189 -1 28 -14 70 -28 94 -32 36 -5
98 -39 121 -66 3 -3 19 -15 35 -26 32 -22 67 -23 255 -10 106 7 121 9 195 30
63 19 89 41 94 81 1 17 6 32 11 35 18 12 42 76 42 110 0 21 -10 53 -21 74 -11
20 -20 36 -18 37 1 1 18 2 37 4 81 7 118 27 158 85 57 84 0 244 -98 275 -16 5
-19 13 -15 44 3 21 12 58 21 82 38 106 24 198 -43 281 l-31 38 20 40 c25 50
29 122 10 180 -16 47 -103 143 -141 155 -12 3 -22 9 -22 13 -1 4 -3 17 -4 30
-4 37 -35 87 -70 111 -35 24 -137 37 -166 21z m-48 -107 c-5 -10 -9 -22 -9
-26 0 -5 -3 -11 -6 -14 -7 -7 1 34 9 47 11 17 16 11 6 -7z"/>
<path d="M980 2219 c0 -8 85 -96 124 -126 20 -17 26 -5 19 37 -5 36 -18 50
-71 75 -42 21 -72 27 -72 14z"/>
<path d="M1620 2069 c-27 -21 -28 -21 -85 -64 -54 -40 -79 -70 -112 -135 -25
-50 -28 -65 -27 -160 0 -64 5 -117 13 -135 l13 -30 41 49 c23 27 62 68 86 90
38 36 126 141 144 173 8 13 -5 11 -48 -6 -45 -19 -81 -19 -76 -1 2 8 8 31 13
50 5 19 10 40 11 47 2 7 6 16 10 19 4 4 7 14 7 21 0 8 9 33 20 55 11 23 19 43
17 44 -1 1 -13 -6 -27 -17z"/>
<path d="M410 1940 c0 -11 4 -20 9 -20 6 0 20 -18 32 -39 22 -39 37 -44 81
-26 43 17 25 43 -52 77 -63 28 -70 29 -70 8z"/>
<path d="M1887 1922 c-52 -15 -121 -74 -176 -151 -33 -47 -39 -63 -18 -56 6 2
26 7 42 10 37 7 38 8 105 28 58 17 55 14 174 175 12 17 -59 14 -127 -6z"/>
<path d="M2096 1901 c-33 -51 -86 -147 -86 -153 0 -11 95 15 131 36 21 11 61
42 91 68 29 25 63 54 74 65 21 18 19 18 -83 19 l-105 1 -22 -36z"/>
<path d="M568 1842 c-16 -10 -28 -20 -28 -24 0 -10 77 -30 102 -26 20 3 20 4
-6 36 -31 36 -31 36 -68 14z"/>
<path d="M1776 553 c3 -38 6 -90 8 -116 2 -26 9 -53 15 -60 18 -17 12 178 -6
216 -8 15 -15 27 -17 27 -2 0 -2 -30 0 -67z"/>
</g>
</svg>
